<?xml version="1.0" encoding="utf-8"?>
<!-- Generator: Adobe Illustrator 26.1.0, SVG Export Plug-In . SVG Version: 6.00 Build 0)  -->
<svg version="1.1" id="Capa_1" xmlns="http://www.w3.org/2000/svg" xmlns:xlink="http://www.w3.org/1999/xlink" x="0px" y="0px"
	 viewBox="0 0 854.7 253.2" style="enable-background:new 0 0 854.7 253.2;" xml:space="preserve">
<style type="text/css">
	.st0{fill:#E62579;}
	.st1{fill:#FFFFFF;}
	.st2{fill:#C5C4C3;}
	.st3{fill:#D7D7D6;}
	.st4{fill:#E8E8E9;}
	.st5{fill:#00A8FF;}
</style>
<path class="st0" d="M110.9,253.2L0,189.9V63.3L110.9,0l110.9,63.3v126.6L110.9,253.2z M4.6,187.3L110.9,248l106.3-60.7V65.9
	L110.9,5.2L4.6,65.9V187.3z"/>
<polygon class="st1" points="114,115.2 114,152.8 162.6,152.8 200.1,174.2 200.1,152.8 200.1,115.2 161.6,115.2 "/>
<polygon class="st1" points="114,26.6 114,70.5 161.6,97.6 161.6,109 200.1,109 200.1,75.7 "/>
<polygon class="st1" points="60.2,97.6 107.8,70.5 107.8,26.6 21.7,75.7 21.7,174.4 60.2,152.4 "/>
<polygon class="st1" points="110.9,184.5 63.7,157.6 25.2,179.5 110.9,228.4 196.7,179.4 158.3,157.5 "/>
<polygon class="st2" points="25.1,77.9 40.7,87.4 40.7,146.6 25.1,166.4 "/>
<polygon class="st3" points="40.7,146.6 56.5,149.4 25.1,166.4 "/>
<polygon class="st4" points="40.7,87.4 56.5,96.7 56.5,149.4 40.7,146.6 "/>
<polygon class="st2" points="110.2,223.6 109.6,205.5 57.7,175.8 32.5,179.3 "/>
<polygon class="st3" points="57.7,175.8 63.2,161 32.5,179.3 "/>
<polygon class="st4" points="109.6,205.5 109.3,187.3 63.2,161 57.7,175.8 "/>
<polygon class="st2" points="111.1,224.3 111.6,206.2 163.5,176.5 188.7,180 "/>
<polygon class="st3" points="163.5,176.5 158,161.6 188.7,180 "/>
<polygon class="st4" points="111.6,206.2 111.9,188 158,161.6 163.5,176.5 "/>
<polygon class="st2" points="26.5,76.7 42,86.2 94.4,55.7 104,32.3 "/>
<polygon class="st3" points="94.4,55.7 104.7,67.7 104,32.3 "/>
<polygon class="st4" points="42,86.2 57.9,95.5 105.1,68.3 94.4,55.7 "/>
<polygon class="st2" points="195.3,77.2 179.8,86.8 127.4,56.2 117.8,32.8 "/>
<polygon class="st3" points="127.4,56.2 117.1,68.2 117.8,32.8 "/>
<polygon class="st4" points="179.8,86.8 163.9,96 116.7,68.8 127.4,56.2 "/>
<polygon class="st2" points="179.8,88.3 196,78.3 196,107 179.8,107 "/>
<polygon class="st4" points="163.7,97.3 179.8,88.3 179.8,107 163.7,107 "/>
<polygon class="st3" points="179.8,96.7 163.7,107 196,107 "/>
<polygon class="st3" points="197,134.4 196.7,150.3 117.1,150.3 117.1,134.4 "/>
<polygon class="st4" points="196.7,118.4 197,134.4 117.1,134.4 117.1,118.4 "/>
<polygon class="st4" points="127.6,134.4 117.1,118.4 117.1,150.3 "/>
<polygon class="st3" points="163.5,150.3 196.7,169.3 196.7,150.3 "/>
<polygon class="st2" points="181.5,134.4 196.7,169.3 196.7,118.4 "/>
<g>
	<path class="st5" d="M302.4,97.2c4.8-2.8,10.3-4.2,15.8-4.2c8.7,0,17.1,3.6,23.1,10l1.3,1.3l6.6-6.2l-1.3-1.4
		c-3.8-4.1-8.4-7.3-13.5-9.6c-11.8-5.2-25.4-4.5-36.6,2c-6.1,3.6-11.2,8.6-14.8,14.7c-7.3,12.5-7.3,28.1,0,40.6
		c3.6,6.1,8.7,11.1,14.8,14.7c6.2,3.6,13.2,5.5,20.4,5.4H348V123h-34.7v9h25.4v23.6h-20.4c-5.6,0-11-1.4-15.8-4.3
		c-4.8-2.8-8.8-6.7-11.6-11.5c-5.7-9.7-5.7-21.7,0-31.3C293.7,103.8,297.7,99.9,302.4,97.2"/>
	<rect x="362.1" y="120.1" class="st5" width="36.3" height="9.1"/>
	<path class="st5" d="M455.3,121L455.3,121l-0.7-0.3c1.6-1.5,3-3.2,4.1-5.2c3-5.4,3.2-11.9,0.7-17.6c-1.2-2.6-2.9-4.9-5-6.8
		c-4.6-4.3-10.8-6.5-18.5-6.5H412l-0.1,80h30.2c3.7,0,7.3-0.6,10.8-1.8c3.3-1.1,6.3-2.9,9-5.1c2.4-2.1,4.4-4.7,5.7-7.6
		c1.3-2.8,2-5.8,2-8.8c0-4.5-1.5-8.9-4.2-12.5C462.7,125.5,459.3,122.7,455.3,121 M444.6,116.5c-1.3,0.5-2.6,0.9-3.9,1.1
		c-1.7,0.2-3.3,0.3-5,0.3H421V93.8h14.9c3.1-0.1,6.2,0.5,9,1.8c2.2,1,4.1,2.6,5.4,4.6c1.1,1.7,1.8,3.8,1.8,5.8
		c0.1,2.4-0.8,4.7-2.3,6.5C448.4,114.2,446.6,115.5,444.6,116.5 M421.1,127h17.1c4.6-0.1,9.3,0.6,13.6,2.3c2.4,1.1,4.6,2.8,6.2,4.9
		c1.6,2,2.5,4.5,2.5,7.1c0,2.4-0.8,4.8-2.2,6.8c-1.6,2.3-3.8,4.2-6.4,5.4c-3.1,1.5-6.4,2.2-9.8,2.1h-21L421.1,127z"/>
	<path class="st5" d="M536,134c0,3-0.6,5.9-1.7,8.7c-1.1,2.7-2.7,5.1-4.7,7.1c-8.7,8.7-22.8,8.7-31.4,0c-2-2-3.7-4.5-4.8-7.1
		c-1.1-2.8-1.7-5.7-1.7-8.7V84.7h-9.1V134c0,4.1,0.8,8.2,2.3,12.1c1.5,3.8,3.8,7.2,6.7,10c2.9,3,6.3,5.3,10.1,6.9
		c7.7,3.3,16.4,3.3,24.1,0c3.7-1.6,7.1-3.9,10-6.9c2.9-2.8,5.3-6.2,6.8-10c1.6-3.8,2.4-8,2.4-12.1V84.7h-9.1L536,134L536,134z"/>
	<polygon class="st5" points="616.6,143.6 563.2,80.5 563.2,164.6 572.2,164.6 572.2,105.9 625.6,169.2 625.6,84.7 616.6,84.7 	"/>
	<polygon class="st5" points="707.3,84.7 695.9,84.7 653.8,142 653.8,84.7 644.7,84.7 644.7,169.7 671.6,133.3 698.3,164.6 
		710.3,164.6 677,125.6 	"/>
	<polygon class="st5" points="721.7,164.6 775.4,164.6 775.4,155.4 730.8,155.4 730.8,129.2 765.5,129.2 765.5,120.1 730.8,120.1 
		730.8,93.8 775.4,93.8 775.4,84.7 721.7,84.7 	"/>
	<path class="st5" d="M822.5,131.1c1.3-0.1,2.5-0.2,3.7-0.3c2.7-0.3,5.2-1.1,7.7-2.2c4-1.7,7.4-4.4,10-7.9
		c4.8-6.1,5.7-14.5,2.3-21.5c-1.4-2.9-3.3-5.4-5.7-7.5c-2.6-2.3-5.6-4.1-8.9-5.2c-3.5-1.2-7.1-1.8-10.8-1.8H792v80h9.1v-71h19.7
		c3.4-0.1,6.8,0.7,9.8,2.2c2.6,1.2,4.8,3.1,6.4,5.4c1.4,2,2.1,4.3,2.1,6.8c0,2.6-0.9,5.2-2.6,7.2c-1.6,2.2-3.8,3.9-6.2,5.1
		c-3.4,1.4-8,2.1-13.5,2.1h-13.5l35.2,42.2h12L822.5,131.1z"/>
</g>
</svg>
